<svg id="Layer_1" enable-background="new 0 0 256 256" height="512" viewBox="0 0 256 256" width="512" xmlns="http://www.w3.org/2000/svg"><path d="m128 32.727c-3.278 0-5.936-2.658-5.936-5.936v-16.855c0-3.278 2.658-5.936 5.936-5.936s5.936 2.658 5.936 5.936v16.854c0 3.278-2.658 5.937-5.936 5.937z" fill="#fcc24c"/><path d="m128 34.727c-4.376 0-7.937-3.561-7.937-7.937v-16.854c0-4.375 3.561-7.936 7.937-7.936s7.936 3.561 7.936 7.936v16.854c0 4.376-3.56 7.937-7.936 7.937zm0-28.727c-2.17 0-3.937 1.766-3.937 3.936v16.854c0 2.17 1.766 3.937 3.937 3.937s3.936-1.766 3.936-3.937v-16.854c0-2.17-1.765-3.936-3.936-3.936z" fill="#690589"/><path d="m26.671 128.119c0-4.664 7.561-8.444 16.888-8.444s16.888 3.781 16.888 8.444c0-4.664 7.561-8.444 16.888-8.444s16.888 3.781 16.888 8.444c0-4.664 7.561-8.444 16.888-8.444s16.889 3.78 16.889 8.444v-101.329c-55.962 0-101.329 45.367-101.329 101.329z" fill="#fcc24c"/><path d="m128 26.79c-55.962 0-101.329 45.366-101.329 101.329 0-4.664 7.561-8.444 16.888-8.444s16.888 3.781 16.888 8.444c0-4.664 7.561-8.444 16.888-8.444 8.711 0 15.877 3.298 16.786 7.533-.683-6.962-3.526-52.829 33.879-100.418z" fill="#f9934e"/><path d="m229.328 128.119c0-4.664-7.561-8.444-16.888-8.444s-16.888 3.781-16.888 8.444c0-4.664-7.561-8.444-16.888-8.444s-16.888 3.781-16.888 8.444c0-4.664-7.561-8.444-16.888-8.444s-16.888 3.781-16.888 8.444v-101.329c55.962 0 101.328 45.367 101.328 101.329z" fill="#7bac51"/><path d="m128 26.79c55.962 0 101.328 45.366 101.328 101.329 0-4.664-7.561-8.444-16.888-8.444s-16.888 3.781-16.888 8.444c0-4.664-7.561-8.444-16.888-8.444-8.711 0-15.877 3.298-16.786 7.533.684-6.962 3.526-52.829-33.878-100.418z" fill="#526faa"/><path d="m128 26.79c55.962 0 101.328 45.366 101.328 101.329 0-4.664-7.561-8.444-16.888-8.444s-16.888 3.781-16.888 8.444c0 0 3.182-75.249-67.552-101.329z" fill="#8852a8"/><path d="m128 26.79c.602.222 1.185.456 1.776.685 47.876 5.542 85.584 44.447 89.258 92.868 6.05 1.284 10.294 4.282 10.294 7.776 0-55.962-45.366-101.329-101.328-101.329z" fill="#6a348a"/><path d="m128 26.79c-55.962 0-101.329 45.366-101.329 101.329 0-4.664 7.561-8.444 16.888-8.444s16.888 3.781 16.888 8.444c.001 0-3.181-75.249 67.553-101.329z" fill="#ff4397"/><path d="m195.554 130.119c-.015 0-.029 0-.043-.001-1.088-.023-1.958-.912-1.958-1.999 0-.114.003-.228.009-.34.051-2.315.166-19.903-7.189-39.997-10.482-28.64-30.355-48.529-59.064-59.114-.909-.335-1.447-1.274-1.277-2.228s1-1.648 1.969-1.648c56.976 0 103.328 46.353 103.328 103.328 0 1.104-.895 2-2 2-1.104 0-2-.896-2-2 0-3.042-6.367-6.444-14.888-6.444-8.354 0-14.638 3.27-14.881 6.265-.004.134-.007.223-.009.264-.045 1.071-.929 1.914-1.997 1.914zm-56.284-100.693c29.939 14.632 44.173 38.642 50.91 57.124 5.307 14.556 6.837 27.6 7.252 35.075 3.395-2.435 8.756-3.949 15.008-3.949 6.044 0 11.254 1.415 14.662 3.709-3.221-47.895-40.547-86.594-87.832-91.959z" fill="#690589"/><path d="m229.328 130.119c-1.104 0-2-.896-2-2 0-3.042-6.367-6.444-14.888-6.444s-14.888 3.402-14.888 6.444c0 1.104-.896 2-2 2-1.105 0-2-.896-2-2 0-3.042-6.367-6.444-14.889-6.444-8.107 0-14.214 3.078-14.831 5.953-.223 1.037-1.214 1.719-2.264 1.556-1.048-.164-1.785-1.116-1.682-2.172.823-8.373 3.079-52.498-33.46-98.986-.473-.602-.561-1.421-.227-2.11s1.033-1.126 1.799-1.126c56.976 0 103.328 46.353 103.328 103.328.002 1.105-.893 2.001-1.998 2.001zm-50.664-12.444c7.575 0 13.839 2.222 16.889 5.612 3.049-3.39 9.313-5.612 16.888-5.612 6.044 0 11.254 1.415 14.662 3.709-3.383-50.284-44.356-90.432-94.981-92.509 29.575 39.459 32.413 76.871 32.088 92.424 3.447-2.245 8.619-3.624 14.454-3.624z" fill="#690589"/><path d="m126.224 27.475c.591-.229 1.174-.463 1.776-.685-55.962 0-101.328 45.366-101.328 101.329 0-3.494 4.244-6.491 10.294-7.776 3.674-48.421 41.382-87.326 89.258-92.868z" fill="#ff61b5"/><path d="m128 210.904c-1.105 0-2-.895-2-2v-80.785c0-1.104.895-2 2-2 1.104 0 2 .896 2 2v80.785c0 1.104-.896 2-2 2z" fill="#690589"/><path d="m115.465 252c-10.161 0-18.428-8.267-18.428-18.428v-4.596c0-3.278 2.658-5.936 5.936-5.936s5.936 2.658 5.936 5.936v4.596c0 3.615 2.941 6.555 6.555 6.555 3.615 0 6.555-2.94 6.555-6.555v-31.579c0-3.278 2.658-5.936 5.936-5.936s5.936 2.658 5.936 5.936v31.579c.002 10.161-8.265 18.428-18.426 18.428z" fill="#fcc24c"/><g fill="#690589"><path d="m60.447 130.119c-1.068 0-1.952-.843-1.997-1.916-.002-.04-.005-.129-.009-.264-.243-2.995-6.527-6.265-14.881-6.265-8.521 0-14.888 3.402-14.888 6.444 0 1.104-.896 2-2 2s-2-.896-2-2c-.001-56.974 46.352-103.327 103.328-103.327.969 0 1.799.695 1.969 1.648.17.954-.368 1.893-1.277 2.228-28.709 10.585-48.581 30.474-59.064 59.114-7.355 20.094-7.24 37.682-7.189 39.997.006.113.009.227.009.34 0 1.088-.87 1.977-1.958 1.999-.014.002-.029.002-.043.002zm-16.887-12.444c6.252 0 11.612 1.514 15.008 3.949.416-7.475 1.946-20.519 7.252-35.075 6.737-18.481 20.972-42.492 50.911-57.124-47.285 5.365-84.611 44.065-87.833 91.958 3.407-2.294 8.617-3.708 14.662-3.708z"/><path d="m60.448 130.119c-1.104 0-2-.896-2-2 0-3.042-6.367-6.444-14.888-6.444s-14.888 3.402-14.888 6.444c0 1.104-.896 2-2 2s-2-.896-2-2c-.001-56.975 46.352-103.328 103.328-103.328.766 0 1.464.437 1.799 1.126.335.688.247 1.508-.227 2.11-36.537 46.484-34.283 90.612-33.46 98.986.104 1.056-.634 2.008-1.682 2.172-1.045.163-2.041-.52-2.264-1.556-.617-2.875-6.724-5.953-14.831-5.953-8.521 0-14.888 3.402-14.888 6.444.001 1.103-.895 1.999-1.999 1.999zm-16.888-12.444c7.575 0 13.839 2.222 16.888 5.612 3.049-3.39 9.313-5.612 16.888-5.612 5.836 0 11.007 1.38 14.456 3.625-.325-15.552 2.513-52.966 32.087-92.424-50.626 2.076-91.599 42.224-94.982 92.508 3.408-2.295 8.618-3.709 14.663-3.709z"/><path d="m128 130.119c-1.105 0-2-.896-2-2 0-3.042-6.367-6.444-14.888-6.444s-14.888 3.402-14.888 6.444c0 1.104-.896 2-2 2s-2-.896-2-2c0-3.042-6.367-6.444-14.888-6.444s-14.888 3.402-14.888 6.444c0 1.104-.896 2-2 2s-2-.896-2-2c0-3.042-6.367-6.444-14.888-6.444s-14.888 3.402-14.888 6.444c0 1.104-.896 2-2 2s-2-.896-2-2c-.001-56.975 46.352-103.328 103.328-103.328 1.104 0 2 .896 2 2v101.328c0 1.104-.896 2-2 2zm-50.665-12.444c7.575 0 13.839 2.222 16.888 5.612 3.049-3.39 9.313-5.612 16.888-5.612 6.179 0 11.487 1.479 14.888 3.864v-92.729c-51.597 1.025-93.672 41.59-97.102 92.574 3.408-2.294 8.618-3.709 14.662-3.709 7.575 0 13.839 2.222 16.888 5.612 3.05-3.391 9.314-5.612 16.888-5.612z"/><path d="m52.882 72.914c-.432 0-.867-.139-1.233-.426-.869-.682-1.021-1.939-.339-2.808 2.898-3.695 6.066-7.266 9.415-10.615.78-.781 2.048-.781 2.828 0 .781.781.781 2.047 0 2.828-3.236 3.236-6.296 6.686-9.096 10.255-.395.503-.982.766-1.575.766z"/><path d="m229.328 130.119c-1.104 0-2-.896-2-2 0-3.042-6.367-6.444-14.888-6.444s-14.888 3.402-14.888 6.444c0 1.104-.896 2-2 2-1.105 0-2-.896-2-2 0-3.042-6.367-6.444-14.889-6.444-8.52 0-14.888 3.402-14.888 6.444 0 1.104-.896 2-2 2-1.105 0-2-.896-2-2 0-3.042-6.367-6.444-14.889-6.444-8.52 0-14.888 3.402-14.888 6.444 0 1.104-.896 2-2 2-1.105 0-2-.896-2-2v-101.328c0-1.104.895-2 2-2 56.976 0 103.328 46.353 103.328 103.328.002 1.104-.893 2-1.998 2zm-50.664-12.444c7.575 0 13.839 2.222 16.889 5.612 3.049-3.39 9.313-5.612 16.888-5.612 6.044 0 11.254 1.415 14.662 3.709-3.43-50.984-45.505-91.549-97.103-92.574v92.729c3.401-2.386 8.709-3.864 14.888-3.864 7.575 0 13.839 2.222 16.889 5.612 3.048-3.391 9.313-5.612 16.887-5.612z"/><path d="m115.465 254c-11.264 0-20.428-9.164-20.428-20.428v-4.596c0-4.376 3.561-7.937 7.937-7.937s7.937 3.561 7.937 7.937v4.596c0 2.512 2.044 4.555 4.555 4.555 2.512 0 4.555-2.043 4.555-4.555v-31.579c0-4.376 3.561-7.937 7.937-7.937s7.937 3.561 7.937 7.937v31.579c-.001 11.264-9.166 20.428-20.43 20.428zm-12.491-28.96c-2.17 0-3.937 1.766-3.937 3.937v4.596c0 9.058 7.37 16.428 16.428 16.428 9.059 0 16.428-7.37 16.428-16.428v-31.579c0-2.171-1.766-3.937-3.937-3.937-2.17 0-3.937 1.766-3.937 3.937v31.579c0 4.717-3.838 8.555-8.555 8.555s-8.555-3.838-8.555-8.555v-4.596c.002-2.171-1.765-3.937-3.935-3.937z"/></g></svg>